<svg width="365" height="45" viewBox="0 0 365 45" fill="none" xmlns="http://www.w3.org/2000/svg">
<path d="M57.8676 19.871L55.7428 26.7355H62.8406L60.7158 19.871C60.5953 19.6 60.4596 19.4043 60.3089 19.2839C60.1884 19.1634 60.0377 19.1032 59.8568 19.1032H58.7266C58.5458 19.1032 58.38 19.1634 58.2293 19.2839C58.1088 19.4043 57.9882 19.6 57.8676 19.871ZM55.2907 41.2774C55.2907 41.8495 55.1551 42.271 54.8838 42.5419C54.6427 42.7828 54.2358 42.9032 53.6632 42.9032H47.0175C46.4448 42.9032 46.0229 42.7828 45.7516 42.5419C45.5105 42.271 45.3899 41.8495 45.3899 41.2774V29.3548C45.3899 28.4516 45.5256 27.4129 45.7968 26.2387C46.0982 25.0645 46.5503 23.6946 47.1531 22.129L51.0863 11.8774C51.2671 11.3656 51.5384 10.9892 51.9 10.7484C52.2919 10.5075 52.7892 10.3871 53.3919 10.3871H65.5532C66.1258 10.3871 66.593 10.5075 66.9547 10.7484C67.3465 10.9892 67.6328 11.3656 67.8136 11.8774L71.7468 22.129C72.3496 23.6946 72.7866 25.0645 73.0579 26.2387C73.3593 27.4129 73.51 28.4516 73.51 29.3548V41.2774C73.51 41.8495 73.3744 42.271 73.1031 42.5419C72.862 42.7828 72.4551 42.9032 71.8825 42.9032H65.0559C64.4531 42.9032 64.001 42.7828 63.6996 42.5419C63.4284 42.271 63.2927 41.8495 63.2927 41.2774V34.9548H55.2907V41.2774Z" fill="white"/>
<path d="M94.1917 42.9032H79.9057C79.333 42.9032 78.9111 42.7828 78.6398 42.5419C78.3987 42.271 78.2781 41.8495 78.2781 41.2774V35.9935C78.2781 35.4215 78.3987 35.0151 78.6398 34.7742C78.9111 34.5032 79.333 34.3677 79.9057 34.3677H92.0669C92.4587 34.3677 92.745 34.2473 92.9259 34.0065C93.1369 33.7355 93.2423 33.4194 93.2423 33.0581C93.2423 32.5462 93.1369 32.1699 92.9259 31.929C92.745 31.6882 92.4587 31.5527 92.0669 31.5226L85.2855 30.5742C83.1758 30.2731 81.4729 29.5806 80.1769 28.4968C78.9111 27.4129 78.2781 25.6065 78.2781 23.0774V18.3355C78.2781 15.7763 79.107 13.8194 80.7646 12.4645C82.4223 11.0796 84.7129 10.3871 87.6364 10.3871H100.295C100.868 10.3871 101.274 10.5226 101.516 10.7935C101.787 11.0344 101.922 11.4409 101.922 12.0129V17.3871C101.922 17.9591 101.787 18.3806 101.516 18.6516C101.274 18.8925 100.868 19.0129 100.295 19.0129H89.7612C89.3694 19.0129 89.068 19.1484 88.8571 19.4194C88.6461 19.6602 88.5406 19.9763 88.5406 20.3677C88.5406 20.7591 88.6461 21.0903 88.8571 21.3613C89.068 21.6323 89.3694 21.7828 89.7612 21.8129L96.4974 22.7161C98.6072 23.0172 100.31 23.7097 101.606 24.7936C102.902 25.8774 103.55 27.6839 103.55 30.2129V34.9548C103.55 37.514 102.706 39.486 101.018 40.871C99.3606 42.2258 97.0851 42.9032 94.1917 42.9032Z" fill="white"/>
<path d="M131.1 42.9032H110.123C109.55 42.9032 109.128 42.7828 108.857 42.5419C108.616 42.271 108.495 41.8495 108.495 41.2774V12.0129C108.495 11.4409 108.616 11.0344 108.857 10.7935C109.128 10.5226 109.55 10.3871 110.123 10.3871H131.1C131.673 10.3871 132.08 10.5226 132.321 10.7935C132.592 11.0344 132.728 11.4409 132.728 12.0129V17.2968C132.728 17.8688 132.592 18.2903 132.321 18.5613C132.08 18.8022 131.673 18.9226 131.1 18.9226H118.622V22.4H127.438C128.011 22.4 128.418 22.5355 128.659 22.8065C128.93 23.0473 129.066 23.4538 129.066 24.0258V28.8581C129.066 29.4301 128.93 29.8516 128.659 30.1226C128.418 30.3634 128.011 30.4839 127.438 30.4839H118.622V34.3677H131.1C131.673 34.3677 132.08 34.5032 132.321 34.7742C132.592 35.0151 132.728 35.4215 132.728 35.9935V41.2774C132.728 41.8495 132.592 42.271 132.321 42.5419C132.08 42.7828 131.673 42.9032 131.1 42.9032Z" fill="white"/>
<path d="M162.715 42.9032H139.703C139.131 42.9032 138.709 42.7828 138.437 42.5419C138.196 42.271 138.076 41.8495 138.076 41.2774V12.0129C138.076 11.4409 138.196 11.0344 138.437 10.7935C138.709 10.5226 139.131 10.3871 139.703 10.3871H146.711C147.283 10.3871 147.69 10.5226 147.931 10.7935C148.202 11.0344 148.338 11.4409 148.338 12.0129V34.3677H154.532V27.0516C154.532 26.4796 154.652 26.0731 154.893 25.8323C155.165 25.5613 155.587 25.4258 156.159 25.4258H162.715C163.287 25.4258 163.694 25.5613 163.935 25.8323C164.206 26.0731 164.342 26.4796 164.342 27.0516V41.2774C164.342 41.8495 164.206 42.271 163.935 42.5419C163.694 42.7828 163.287 42.9032 162.715 42.9032Z" fill="white"/>
<path d="M170.414 42.9032C169.842 42.9032 169.42 42.7828 169.148 42.5419C168.907 42.271 168.787 41.8495 168.787 41.2774V35.9032C168.787 35.3312 168.907 34.9247 169.148 34.6839C169.42 34.4129 169.842 34.2774 170.414 34.2774H174.89V19.1032H170.414C169.842 19.1032 169.42 18.9828 169.148 18.7419C168.907 18.471 168.787 18.0495 168.787 17.4774V12.0129C168.787 11.4409 168.907 11.0344 169.148 10.7935C169.42 10.5226 169.842 10.3871 170.414 10.3871H189.673C190.246 10.3871 190.653 10.5226 190.894 10.7935C191.165 11.0344 191.301 11.4409 191.301 12.0129V17.4774C191.301 18.0495 191.165 18.471 190.894 18.7419C190.653 18.9828 190.246 19.1032 189.673 19.1032H185.288V34.2774H189.673C190.246 34.2774 190.653 34.4129 190.894 34.6839C191.165 34.9247 191.301 35.3312 191.301 35.9032V41.2774C191.301 41.8495 191.165 42.271 190.894 42.5419C190.653 42.7828 190.246 42.9032 189.673 42.9032H170.414Z" fill="white"/>
<path d="M205.292 42.9032H198.51C197.938 42.9032 197.516 42.7828 197.244 42.5419C197.003 42.271 196.883 41.8495 196.883 41.2774V12.0129C196.883 11.4409 197.003 11.0344 197.244 10.7935C197.516 10.5226 197.938 10.3871 198.51 10.3871H203.212C203.785 10.3871 204.267 10.4774 204.659 10.6581C205.081 10.8387 205.488 11.1548 205.879 11.6065L214.65 21.6323V12.0129C214.65 11.4409 214.771 11.0344 215.012 10.7935C215.283 10.5226 215.705 10.3871 216.277 10.3871H223.059C223.631 10.3871 224.038 10.5226 224.279 10.7935C224.551 11.0344 224.686 11.4409 224.686 12.0129V41.2774C224.686 41.8495 224.551 42.271 224.279 42.5419C224.038 42.7828 223.631 42.9032 223.059 42.9032H216.277C215.705 42.9032 215.283 42.7828 215.012 42.5419C214.771 42.271 214.65 41.8495 214.65 41.2774V35.7226L206.919 26.3742V41.2774C206.919 41.8495 206.784 42.271 206.512 42.5419C206.271 42.7828 205.864 42.9032 205.292 42.9032Z" fill="white"/>
<path d="M253.527 42.9032H232.55C231.977 42.9032 231.555 42.7828 231.284 42.5419C231.043 42.271 230.922 41.8495 230.922 41.2774V12.0129C230.922 11.4409 231.043 11.0344 231.284 10.7935C231.555 10.5226 231.977 10.3871 232.55 10.3871H253.527C254.099 10.3871 254.506 10.5226 254.747 10.7935C255.018 11.0344 255.154 11.4409 255.154 12.0129V17.2968C255.154 17.8688 255.018 18.2903 254.747 18.5613C254.506 18.8022 254.099 18.9226 253.527 18.9226H241.049V22.4H249.865C250.437 22.4 250.844 22.5355 251.085 22.8065C251.357 23.0473 251.492 23.4538 251.492 24.0258V28.8581C251.492 29.4301 251.357 29.8516 251.085 30.1226C250.844 30.3634 250.437 30.4839 249.865 30.4839H241.049V34.3677H253.527C254.099 34.3677 254.506 34.5032 254.747 34.7742C255.018 35.0151 255.154 35.4215 255.154 35.9935V41.2774C255.154 41.8495 255.018 42.271 254.747 42.5419C254.506 42.7828 254.099 42.9032 253.527 42.9032Z" fill="white"/>
<path d="M266.065 42.9032V20.7742H279.451V22.6077H268.09V30.8903H278.565V32.7239H268.09V41.0697H279.578V42.9032H266.065Z" fill="white"/>
<path d="M288.261 42.9032L282.501 27.5394H284.526L289.59 41.449H289.97L295.033 27.5394H297.058L291.299 42.9032H288.261Z" fill="white"/>
<path d="M307.397 43.3458C305.815 43.3458 304.433 43.0191 303.251 42.3658C302.091 41.6914 301.184 40.7536 300.53 39.5523C299.876 38.351 299.549 36.9705 299.549 35.411V35.0316C299.549 33.451 299.876 32.0705 300.53 30.8903C301.184 29.689 302.081 28.7617 303.22 28.1084C304.38 27.434 305.699 27.0968 307.176 27.0968C308.61 27.0968 309.876 27.4024 310.973 28.0136C312.091 28.6037 312.967 29.4677 313.6 30.6058C314.233 31.7228 314.549 33.0611 314.549 34.6206V35.6323H301.448C301.511 37.5501 302.091 39.0359 303.188 40.0897C304.306 41.1224 305.709 41.6387 307.397 41.6387C308.832 41.6387 309.939 41.312 310.72 40.6587C311.522 40.0054 312.134 39.2045 312.556 38.2561L314.264 39.0148C313.948 39.7103 313.505 40.3953 312.935 41.0697C312.387 41.723 311.669 42.271 310.783 42.7136C309.897 43.1351 308.769 43.3458 307.397 43.3458ZM301.479 33.9884H312.619C312.534 32.3234 311.996 31.0484 311.005 30.1632C310.013 29.257 308.737 28.8039 307.176 28.8039C305.636 28.8039 304.359 29.257 303.346 30.1632C302.334 31.0484 301.711 32.3234 301.479 33.9884Z" fill="white"/>
<path d="M319.222 42.9032V27.5394H321.058V30.3845H321.437C321.817 29.5626 322.439 28.8355 323.304 28.2032C324.169 27.5499 325.425 27.2232 327.07 27.2232C328.189 27.2232 329.212 27.4551 330.14 27.9187C331.068 28.3824 331.807 29.0884 332.355 30.0368C332.925 30.9641 333.21 32.1338 333.21 33.5458V42.9032H331.311V33.6723C331.311 31.9862 330.889 30.7744 330.045 30.0368C329.201 29.2991 328.072 28.9303 326.659 28.9303C325.077 28.9303 323.758 29.4572 322.703 30.511C321.648 31.5437 321.121 33.1138 321.121 35.2213V42.9032H319.222Z" fill="white"/>
<path d="M343.736 42.9032C342.914 42.9032 342.291 42.6925 341.869 42.271C341.468 41.8495 341.268 41.2594 341.268 40.5007V29.2465H336.331V27.5394H341.268V21.7858H343.167V27.5394H348.547V29.2465H343.167V40.2477C343.167 40.88 343.483 41.1961 344.116 41.1961H347.724V42.9032H343.736Z" fill="white"/>
<path d="M358.892 43.3458C357.036 43.3458 355.443 42.9032 354.114 42.0181C352.806 41.1329 352.004 39.6682 351.709 37.6239L353.576 37.2761C353.744 38.3931 354.082 39.2783 354.588 39.9316C355.116 40.5639 355.749 41.017 356.487 41.291C357.247 41.5649 358.048 41.7019 358.892 41.7019C360.158 41.7019 361.171 41.449 361.93 40.9432C362.711 40.4163 363.101 39.6998 363.101 38.7936C363.101 37.8662 362.732 37.2234 361.994 36.8652C361.276 36.5069 360.316 36.2224 359.114 36.0116L357.658 35.7587C356.688 35.5901 355.812 35.3372 355.031 35C354.251 34.6417 353.628 34.1675 353.164 33.5774C352.721 32.9873 352.5 32.2497 352.5 31.3645C352.5 30.0368 353.017 28.9935 354.05 28.2348C355.105 27.4761 356.498 27.0968 358.228 27.0968C359.979 27.0968 361.382 27.4972 362.437 28.2981C363.513 29.0779 364.188 30.2159 364.462 31.7123L362.69 32.0916C362.479 30.8693 361.972 30.0052 361.171 29.4994C360.39 28.9935 359.409 28.7406 358.228 28.7406C357.067 28.7406 356.139 28.9619 355.443 29.4045C354.747 29.8471 354.398 30.5004 354.398 31.3645C354.398 32.2075 354.715 32.8292 355.348 33.2297C355.981 33.609 356.846 33.8936 357.943 34.0832L359.399 34.3361C360.453 34.5047 361.403 34.7576 362.247 35.0948C363.091 35.411 363.755 35.8641 364.24 36.4542C364.747 37.0443 365 37.8241 365 38.7936C365 40.2477 364.451 41.3753 363.354 42.1761C362.257 42.9559 360.77 43.3458 358.892 43.3458Z" fill="white"/>
<path d="M6.21625 45H7.34648V0H6.21625V45Z" fill="white"/>
<path d="M5.08602 0H3.9558V45H5.08602V0Z" fill="white"/>
<path d="M9.60693 45H8.4767V0H9.60693V45Z" fill="white"/>
<path fill-rule="evenodd" clip-rule="evenodd" d="M10.7372 45H27.8323C32.206 45 35.431 44.1667 37.5074 42.5C39.6279 40.8333 40.6882 38.25 40.6882 34.75V29C40.6882 25.9583 40.0034 23.6458 38.6339 22.0625C37.2644 20.4792 35.1659 19.5625 32.3385 19.3125C33.6638 18.7708 34.6358 17.9583 35.2543 16.875C35.9169 15.75 36.2483 14.3125 36.2483 12.5625V9.5625C36.2483 6.3125 35.2101 3.91667 33.1337 2.375C31.0573 0.791666 27.8544 0 23.5249 0H10.7372V45ZM14.9102 10.625V17.375H20.5429C21.3823 17.375 22.0008 17.1667 22.3984 16.75C22.8402 16.3333 23.0611 15.7083 23.0611 14.875V13.125C23.0611 12.2917 22.8402 11.6667 22.3984 11.25C22.0008 10.8333 21.3823 10.625 20.5429 10.625H14.9102ZM14.9102 27V34.375H23.5249C24.3643 34.375 24.9828 34.1667 25.3804 33.75C25.8222 33.3333 26.0431 32.7083 26.0431 31.875V29.4375C26.0431 28.6042 25.8222 28 25.3804 27.625C24.9828 27.2083 24.3643 27 23.5249 27H14.9102Z" fill="white"/>
<path d="M2.38563 0H2.82557V45H2.38563C1.54624 45 0.927743 44.8333 0.530139 44.5C0.176713 44.125 0 43.5417 0 42.75V2.25C0 1.45833 0.176713 0.895834 0.530139 0.5625C0.927743 0.1875 1.54624 0 2.38563 0Z" fill="white"/>
</svg>
